<svg width="427" height="366" viewBox="0 0 427 366" fill="none" xmlns="http://www.w3.org/2000/svg">
<path d="M85.7351 56.9252C78.1494 40.6577 85.1875 21.3208 101.455 13.7351V13.7351C117.723 6.14944 137.059 13.1875 144.645 29.455L194.303 135.946L135.393 163.416L85.7351 56.9252Z" fill="#9FDE76"/>
<path d="M183 222.5C183 197.172 173.36 172.881 156.2 154.971C139.041 137.062 115.767 127 91.5 127C67.2327 127 43.9593 137.062 26.7997 154.971C9.64016 172.881 3.66426e-06 197.172 0 222.5L91.5 222.5H183Z" fill="#F76D8E"/>
<path d="M427 222.5C427 197.172 417.36 172.881 400.2 154.971C383.041 137.062 359.767 127 335.5 127C311.233 127 287.959 137.062 270.8 154.971C253.64 172.881 244 197.172 244 222.5L335.5 222.5H427Z" fill="#F76D8E"/>
<path d="M372 216C372 196.302 368.12 176.796 360.582 158.597C353.044 140.399 341.995 123.863 328.066 109.934C314.137 96.0052 297.601 84.9563 279.403 77.4181C261.204 69.8799 241.698 66 222 66C202.302 66 182.796 69.8799 164.597 77.4181C146.399 84.9563 129.863 96.0052 115.934 109.934C102.005 123.863 90.9563 140.399 83.4181 158.597C75.8799 176.796 72 196.302 72 216L222 216H372Z" fill="#9FDE76"/>
<path d="M299.657 29.455C307.243 13.1875 326.58 6.14941 342.848 13.7351V13.7351C359.115 21.3208 366.153 40.6576 358.567 56.9252L308.91 163.416L250 135.946L299.657 29.455Z" fill="#9FDE76"/>
<ellipse cx="295.5" cy="179.5" rx="20.5" ry="7.5" fill="#F76D8E"/>
<ellipse cx="153.5" cy="179.5" rx="20.5" ry="7.5" fill="#F76D8E"/>
<ellipse cx="283.5" cy="154" rx="12.5" ry="30" fill="#3B8AC4"/>
<ellipse cx="165.5" cy="154" rx="12.5" ry="30" fill="#3B8AC4"/>
</svg>
